<?xml version="1.0" encoding="utf-8"?>
<!-- Generator: Adobe Illustrator 16.0.0, SVG Export Plug-In . SVG Version: 6.00 Build 0)  -->
<!DOCTYPE svg PUBLIC "-//W3C//DTD SVG 1.1//EN" "http://www.w3.org/Graphics/SVG/1.1/DTD/svg11.dtd">
<svg version="1.1" id="Layer_1" xmlns="http://www.w3.org/2000/svg" xmlns:xlink="http://www.w3.org/1999/xlink" x="0px" y="0px"
	 width="32px" height="32px" viewBox="0 0 32 32" enable-background="new 0 0 32 32" xml:space="preserve">
<path fill="#313131" d="M22.938,22.938c-0.668,0.668-1.874,0.954-2.441,0.387L8.675,11.503c-0.568-0.567-0.282-1.774,0.386-2.442
	l0,0c0.667-0.667,1.875-0.954,2.442-0.386l11.822,11.822C23.893,21.064,23.605,22.271,22.938,22.938L22.938,22.938z"/>
<path fill="#313131" d="M22.938,9.062c0.668,0.668,0.954,1.874,0.387,2.442L11.503,23.325c-0.567,0.567-1.774,0.281-2.442-0.387l0,0
	c-0.668-0.668-0.954-1.874-0.386-2.442L20.497,8.675C21.064,8.107,22.271,8.394,22.938,9.062L22.938,9.062z"/>
</svg>
