<?xml version="1.0" encoding="utf-8"?>
<!-- Generator: Adobe Illustrator 16.0.0, SVG Export Plug-In . SVG Version: 6.00 Build 0)  -->
<!DOCTYPE svg PUBLIC "-//W3C//DTD SVG 1.1//EN" "http://www.w3.org/Graphics/SVG/1.1/DTD/svg11.dtd">
<svg version="1.1" id="Layer_1" xmlns="http://www.w3.org/2000/svg" xmlns:xlink="http://www.w3.org/1999/xlink" x="0px" y="0px"
	 width="32px" height="32px" viewBox="0 0 32 32" enable-background="new 0 0 32 32" xml:space="preserve">
<path fill="#313131" d="M25.813,9c0,0.944-0.65,2-1.453,2H7.641c-0.803,0-1.454-1.056-1.454-2l0,0c0-0.944,0.651-2,1.454-2h16.718
	C25.162,7,25.813,8.056,25.813,9L25.813,9z"/>
<path fill="#313131" d="M25.813,23c0,0.943-0.65,2-1.453,2H7.641c-0.803,0-1.454-1.057-1.454-2l0,0c0-0.943,0.651-2,1.454-2h16.718
	C25.162,21,25.813,22.057,25.813,23L25.813,23z"/>
<path fill="#313131" d="M25.813,16c0,0.944-0.65,2-1.453,2H7.641c-0.803,0-1.454-1.056-1.454-2l0,0c0-0.944,0.651-2,1.454-2h16.718
	C25.162,14,25.813,15.056,25.813,16L25.813,16z"/>
</svg>
